# xmcd CD database file
#
# Track frame offsets:
#	150
#	26341
#	42697
#	67307
#	90796
#	107149
#	125185
#	144077
#	165308
#	183157
#	204512
#	226405
#	252155
#	271475
#	301984
#	314027
#	329535
#
# Disc length: 4703 seconds
#
# Revision: 3
# Processed by: cddbd v1.5.2PL0 Copyright (c) Steve Scherf et al.
# Submitted via: Feurio! 1.68 - http://www.feurio.com
#
DISCID=f2125d11
DTITLE=Various Artist - Geniesser Lounge - Hot Salsa - CD 2
DYEAR=2010
DGENRE=Easy Listening
TTITLE0=Celia Cruz - Por Si Acaso No Regreso
TTITLE1=Gloria Estefan - Nuevo Dia New Day
TTITLE2=Juan Formell Y Los Van Van - No Es Facil
TTITLE3=Rubén Blades - Como Un Huracan
TTITLE4=Gloria Matancera - Con la Punta del Pie
TTITLE5=El Nene - Eres Tu
TTITLE6=Generoso 'Tojo' Jiménez y su Orquesta  - Maracaibo Oriental
TTITLE7=Septedo típico Traditionales Del Son - Guacoco
TTITLE8=Grupo Sierra Maestra  - Aunque Tu Mami No Quiera
TTITLE9=Afro Cuban  All Stars ft. Felix Baloy - Baila Mi Son
TTITLE10=Grupo Niche - La Gallinita De Los Huevos De Oro
TTITLE11=Opus 13 - Tu No Me Calculas
TTITLE12=Giro - No Podras
TTITLE13=The Sons Of Buena Vista - Los Herederos
TTITLE14=Tito Rodrigues  - Abarriba Cumbiaremos
TTITLE15=Danae - Llego Danae
TTITLE16=Willy Chirino - Rumbera
EXTD=CD2
EXTT0=
EXTT1=
EXTT2=
EXTT3=
EXTT4=
EXTT5=
EXTT6=
EXTT7=
EXTT8=
EXTT9=
EXTT10=
EXTT11=
EXTT12=
EXTT13=
EXTT14=
EXTT15=
EXTT16=
PLAYORDER=
